<svg xmlns="http://www.w3.org/2000/svg" width="94" height="69" viewBox="0 0 94 69">
    <path fill="#ff6f00" fill-rule="nonzero" d="M30.173 52.35c4.217-5.836 6.333-13.832 6.333-23.993V.997H1.186V33.6h17.402l-.037.533c-.29 4.15-1.691 7.755-4.207 10.813-2.44 2.96-6.772 5.909-12.97 8.844l7.385 13.926c10.092-4.447 17.236-9.583 21.414-15.365zM17.51 34.597H.188V0h37.316v28.357c0 10.355-2.17 18.554-6.522 24.577C26.627 58.961 19.2 64.26 8.734 68.816L8.311 69 0 53.33l.476-.222c6.33-2.952 10.707-5.9 13.097-8.798 2.274-2.763 3.584-5.994 3.938-9.713zM86.653 52.35c4.216-5.836 6.332-13.832 6.332-23.993l.016-27.36H57.69V33.6h17.398l-.038.533c-.29 4.15-1.69 7.755-4.206 10.813-2.45 2.96-6.782 5.91-12.976 8.844l7.377 13.926c10.11-4.456 17.24-9.58 21.408-15.365zm.81.584c-4.345 6.03-11.757 11.317-22.243 15.882l-.424.184-8.3-15.67.475-.222c6.326-2.95 10.704-5.898 13.103-8.798 2.273-2.763 3.583-5.994 3.937-9.713H56.69V0H94l-.017 28.357c0 10.355-2.17 18.554-6.52 24.577z"/>
</svg>
